<svg width="59" height="61" viewBox="0 0 59 61" fill="none" xmlns="http://www.w3.org/2000/svg">
<path d="M24.5431 2.84059C20.0206 5.44657 15.8289 7.84573 4.41225 14.3952L0.0689413 16.877L0.0275765 30.1414L0 43.4057L1.13064 44.0813C1.7649 44.4536 3.79177 45.6256 5.65319 46.6873C7.51461 47.7628 12.4784 50.6169 16.6838 53.0299C20.8892 55.4566 25.4945 58.104 26.9147 58.9175L29.5069 60.3928L30.5686 59.7861C31.9474 59.014 43.2262 52.5197 44.9498 51.527C47.9418 49.7896 56.8215 44.7018 57.8694 44.1227L59 43.4884V30.1827V16.877L56.9042 15.6913C54.4912 14.3262 42.978 7.73542 34.9946 3.14393C31.975 1.40661 29.4931 -0.0135841 29.4793 0.000205994C29.4517 0.000205994 27.2318 1.28251 24.5431 2.84059ZM33.5055 4.09532C35.5875 5.2949 38.814 7.15631 40.6754 8.21801C42.5368 9.27971 46.4803 11.5548 49.4309 13.2507C52.3954 14.9605 55.4151 16.684 56.1458 17.0977L57.4833 17.8422L57.4557 30.1827L57.4281 42.5232L53.0159 45.0465C50.5892 46.4391 47.3903 48.2729 45.9149 49.1278C37.6695 53.8985 29.8378 58.3659 29.631 58.4073C29.3828 58.4763 29.0795 58.3108 24.9568 55.9392C23.702 55.2222 21.0133 53.6641 18.9589 52.4921C15.3326 50.4101 6.56322 45.3774 3.24024 43.4608L1.58565 42.5094V30.1827V17.856L4.13648 16.3807C7.6387 14.3676 15.8151 9.66578 23.1643 5.44657C26.5424 3.51621 29.3966 1.91677 29.5069 1.91677C29.631 1.91677 31.4235 2.89574 33.5055 4.09532Z" fill="#0533FA"/>
<path d="M35.3255 10.8791C34.8015 11.1963 34.8843 11.0308 33.1332 15.5672C30.279 22.9439 29.5068 24.957 29.5068 25.0121C29.5068 25.0535 29.7412 25.0811 30.0446 25.0811H30.5685L30.996 24.0056C31.2166 23.4265 32.361 20.4896 33.5054 17.4975C34.6636 14.5055 35.684 11.9684 35.7805 11.8581C35.877 11.7616 36.1252 11.6651 36.332 11.6651C36.7457 11.6651 36.9525 11.8995 36.9525 12.3407C36.9525 12.5062 36.3872 14.0918 35.6978 15.8567C35.0084 17.6354 34.2776 19.552 34.057 20.1173C33.8364 20.6826 33.3538 21.9511 32.9677 22.9439C32.5816 23.9228 32.2645 24.8191 32.2645 24.9156C32.2645 25.0397 32.4299 25.0811 32.7884 25.0535L33.2986 25.0121L35.6702 18.8763C36.9801 15.4982 38.0556 12.5613 38.0556 12.3545C38.0694 11.0032 36.5113 10.1621 35.3255 10.8791Z" fill="#0533FA"/>
<path d="M19.1107 17.7043C18.8349 17.8974 17.1251 19.2073 15.3327 20.6274C13.5402 22.0476 11.5409 23.6057 10.9204 24.1021L9.76221 25.0121L10.4654 25.0535C10.8515 25.0811 11.3065 25.0259 11.472 24.9294C11.6374 24.8329 13.5264 23.3851 15.6774 21.6891C17.8146 20.007 19.6898 18.5454 19.8414 18.4765C20.1723 18.2972 20.7377 18.4765 20.8618 18.7936C21.0272 19.221 20.7239 19.5795 18.959 20.9584C16.4771 22.8887 14.0228 24.8329 13.8711 24.9707C13.7884 25.0259 14.1055 25.0811 14.5743 25.0811H15.4016L18.1455 22.9301C21.565 20.2552 21.9235 19.9105 21.9235 19.1521C21.9235 18.835 21.8269 18.4075 21.7166 18.1869C21.2754 17.332 20.0069 17.0976 19.1107 17.7043Z" fill="#0533FA"/>
<path d="M37.7523 17.6631C37.5593 17.8424 37.3249 18.1181 37.2421 18.2836C36.9939 18.78 37.0629 19.621 37.38 20.0347C37.5317 20.2277 38.9932 21.4411 40.6341 22.7372L43.5985 25.0812H44.3431C44.7567 25.0812 45.0877 25.026 45.0877 24.9709C45.0877 24.902 44.8808 24.7089 44.6464 24.5297C44.1638 24.1988 41.9715 22.4752 39.6413 20.6276C38.8829 20.0209 38.2211 19.428 38.1797 19.3039C38.0556 18.9868 38.2763 18.5042 38.5934 18.3939C38.7451 18.3525 39.0346 18.4077 39.2552 18.5318C39.462 18.6421 41.4476 20.1726 43.6399 21.9099L47.6385 25.0812H48.4658C49.4172 25.0812 49.4861 25.1915 47.5696 23.6886C46.8526 23.1095 44.7705 21.4825 42.9643 20.0485C39.6689 17.4563 39.6551 17.4425 38.8967 17.3873C38.2487 17.346 38.0694 17.3873 37.7523 17.6631Z" fill="#0533FA"/>
<path d="M4.96387 28.3488C4.96387 28.4178 5.30857 29.0796 5.72222 29.8242C6.37027 30.9962 6.48058 31.2995 6.48058 31.9338V32.6646H7.03211H7.58364V32.0027C7.58364 31.4788 7.73531 31.0513 8.34199 29.8793C8.75564 29.0796 9.10035 28.3764 9.10035 28.3212C9.10035 28.2799 8.86595 28.2523 8.59018 28.2799C8.13517 28.3212 8.05244 28.3902 7.61121 29.1761C7.36303 29.6587 7.10105 30.0448 7.05968 30.0448C7.00453 30.0448 6.74255 29.6449 6.48058 29.1485C6.02556 28.2937 5.97041 28.2523 5.48782 28.2523C5.19827 28.2523 4.96387 28.2937 4.96387 28.3488Z" fill="#0533FA"/>
<path d="M10.617 28.5557C8.76936 29.4933 9.03133 31.9476 11.0306 32.5405C11.9407 32.8163 12.7955 32.5957 13.4712 31.9062C14.0365 31.3409 14.0641 31.2858 14.0641 30.4723C14.0641 29.7001 14.0227 29.5898 13.5677 29.0797C12.7817 28.211 11.6787 28.018 10.617 28.5557ZM12.6163 29.5622C13.3746 30.3068 12.8369 31.6994 11.8028 31.6994C11.072 31.6994 10.548 31.1893 10.548 30.4585C10.548 29.9897 10.6308 29.8104 10.9341 29.5485C11.4581 29.1072 12.1751 29.1072 12.6163 29.5622Z" fill="#0533FA"/>
<path d="M14.6155 29.6313C14.6155 31.41 14.8361 31.9891 15.6358 32.389C16.6699 32.8853 17.773 32.6371 18.3935 31.7961C18.6417 31.4514 18.683 31.2032 18.683 29.8657V28.3214L18.1729 28.28L17.6489 28.2387V29.5486C17.6489 30.2656 17.5937 31.0101 17.511 31.2032C17.2766 31.8512 16.1736 31.8512 15.884 31.217C15.7875 31.0239 15.7185 30.2793 15.7185 29.5624V28.2525H15.167H14.6155V29.6313Z" fill="#0533FA"/>
<path d="M19.5793 30.4584V32.6646H20.0619H20.5307L20.5721 31.3133L20.6135 29.9758L21.6338 31.3133C22.5576 32.5542 22.6817 32.6646 23.1091 32.6646H23.5779V30.4584V28.2523H23.0954H22.6266L22.5852 29.5898L22.5438 30.941L21.5235 29.5898C20.5997 28.3626 20.4756 28.2523 20.0481 28.2523H19.5793V30.4584Z" fill="#0533FA"/>
<path d="M25.5083 28.5557C23.7296 29.4657 23.8675 31.7821 25.7565 32.5267C26.2942 32.7335 27.3697 32.637 27.9764 32.3199C28.3762 32.113 28.4038 32.0579 28.4038 31.2857V30.4585H27.9212C27.4524 30.4585 27.4386 30.4722 27.4386 30.9962C27.4386 31.5615 27.287 31.6994 26.6665 31.6994C26.2528 31.6994 25.784 31.465 25.5496 31.1617C25.329 30.8721 25.329 30.0448 25.5496 29.7553C25.9633 29.2175 26.9836 29.0383 27.5214 29.4243C27.7833 29.6036 27.8385 29.5898 28.1418 29.2727C28.4727 28.928 28.4727 28.9142 28.197 28.7625C27.2318 28.1834 26.3769 28.1282 25.5083 28.5557Z" fill="#0533FA"/>
<path d="M31.9889 28.3765C30.9961 28.6799 30.4446 29.4244 30.4446 30.4585C30.4446 32.3475 32.6369 33.3127 34.195 32.1131L34.5397 31.8512L34.2364 31.5478C33.9468 31.2583 33.9192 31.2583 33.4642 31.4789C32.8989 31.7409 32.6231 31.7546 32.2233 31.534C31.7545 31.2858 31.589 30.9963 31.5752 30.4172C31.5752 29.3968 32.5818 28.9005 33.5332 29.452C33.933 29.7002 33.933 29.7002 34.195 29.3555C34.5121 28.9418 34.457 28.8453 33.7262 28.5144C33.1333 28.2524 32.568 28.1973 31.9889 28.3765Z" fill="#0533FA"/>
<path d="M36.3046 28.404C35.5876 28.6108 34.9119 29.383 34.8154 30.1C34.5672 31.7132 36.1805 32.9955 37.8488 32.5405C38.8002 32.2785 39.5724 31.3271 39.5724 30.4309C39.5586 29.8518 39.0622 28.9969 38.5658 28.6798C38.0005 28.3351 36.9388 28.1972 36.3046 28.404ZM37.8075 29.3692C37.9591 29.4519 38.166 29.7277 38.2763 29.9897C38.8002 31.2306 37.3387 32.2509 36.3046 31.3685C36.0012 31.1065 35.9185 30.9273 35.9185 30.4585C35.9185 29.9897 36.0012 29.8104 36.3046 29.5484C36.7182 29.1899 37.3387 29.121 37.8075 29.3692Z" fill="#0533FA"/>
<path d="M40.1238 30.4584V32.6646H41.3371C42.6884 32.6646 43.4605 32.4026 43.9569 31.7683C44.8394 30.6515 44.274 28.8176 42.909 28.4178C42.6057 28.3212 41.8611 28.2523 41.2406 28.2523H40.1238V30.4584ZM42.5229 29.2726C43.0745 29.507 43.364 30.1137 43.2399 30.8031C43.1158 31.4098 42.647 31.7407 41.8749 31.7545L41.2958 31.7683L41.2544 30.6101C41.2268 29.9758 41.2406 29.3692 41.282 29.2588C41.3785 29.0244 41.9438 29.0244 42.5229 29.2726Z" fill="#0533FA"/>
<path d="M45.0876 30.4584V32.6646H46.8112H48.5347V32.2509V31.8373H47.3627H46.1907V31.3547V30.8721H47.2248H48.2589V30.4584V30.0448H47.2248H46.1907V29.5622V29.0796H47.28C48.3279 29.0796 48.3693 29.0658 48.4244 28.7349C48.4658 28.5556 48.4658 28.3626 48.4244 28.3212C48.383 28.2799 47.6109 28.2523 46.7147 28.2523H45.0876V30.4584Z" fill="#0533FA"/>
<path d="M49.2241 30.4446V32.6646H49.7757H50.3272V32.0441C50.3272 31.4236 50.3272 31.4236 50.8098 31.4236C51.251 31.4236 51.3199 31.4788 51.5957 32.0441C51.8853 32.637 51.9266 32.6646 52.4919 32.6646C52.8229 32.6646 53.0848 32.6232 53.0848 32.5542C53.0848 32.4991 52.9056 32.182 52.6712 31.851L52.2713 31.2306L52.6022 30.9272C53.0159 30.5549 53.1676 29.7552 52.947 29.2175C52.6574 28.5143 52.2024 28.335 50.6443 28.2799L49.2241 28.2247V30.4446ZM51.6233 29.2175C51.8853 29.314 51.9818 29.4519 51.9818 29.7276C51.9818 30.3481 51.7887 30.5136 51.058 30.5136L50.3961 30.5274L50.3548 29.9896C50.3272 29.7001 50.341 29.3829 50.3823 29.2726C50.4651 29.052 51.1131 29.0244 51.6233 29.2175Z" fill="#0533FA"/>
<path d="M9.8725 35.2569C9.80356 35.381 18.0627 42.027 19.2072 42.7853C20.0758 43.3644 21.3995 42.9784 21.7856 42.0408C22.0062 41.5168 21.8821 40.593 21.5512 40.2207C21.4133 40.0691 20.0069 38.9108 18.4212 37.6561C15.829 35.6017 15.4705 35.3535 14.8914 35.2845C13.6091 35.1191 13.6781 35.2707 15.5257 36.7323C19.9793 40.2483 20.6825 40.8274 20.8066 41.048C20.9996 41.4203 20.6825 41.958 20.2551 42.0132C19.9104 42.0546 18.5591 41.0342 12.8921 36.5117C11.6098 35.4776 11.2927 35.2845 10.8653 35.2845C10.5895 35.2845 10.2724 35.2432 10.1621 35.2018C10.0517 35.1604 9.91386 35.188 9.8725 35.2569Z" fill="#0533FA"/>
<path d="M25.3842 35.5876C24.5018 37.8765 21.5097 45.5841 21.1375 46.5493C20.5583 48.066 20.5859 48.59 21.3029 49.307C21.7028 49.7068 21.8544 49.762 22.4473 49.762C23.3574 49.762 23.84 49.3621 24.3225 48.2177C24.9568 46.6734 29.2312 35.5325 29.2312 35.4084C29.2312 35.3394 28.9968 35.2843 28.7072 35.2843H28.1695L27.6041 36.7596C27.287 37.5869 26.6665 39.2139 26.2253 40.3859C25.7703 41.5579 24.9982 43.5435 24.5156 44.7982C24.0192 46.0529 23.509 47.3766 23.3712 47.7351C23.2333 48.1074 22.9713 48.5072 22.792 48.6175C22.5025 48.8106 22.4473 48.8106 22.1302 48.6037C21.5649 48.2315 21.3856 48.8519 24.8189 39.9723C25.7427 37.5869 26.5287 35.5463 26.57 35.4497C26.6252 35.3394 26.4735 35.2843 26.0737 35.2843C25.6049 35.2843 25.4808 35.3394 25.3842 35.5876Z" fill="#0533FA"/>
<path d="M41.7648 36.7459C40.7445 37.5456 39.4484 38.5659 38.8693 39.0072C37.4491 40.1102 37.0906 40.5514 37.0906 41.2271C37.0906 42.3163 37.7938 43.0471 38.8279 43.0471C39.1588 43.0471 39.5725 42.9368 39.8069 42.7851C40.0275 42.6473 42.2474 40.9099 44.7431 38.9382L49.2794 35.3533L48.4935 35.3119C47.7075 35.2705 47.6938 35.2705 46.5631 36.1668C39.9172 41.4063 39.0623 42.0406 38.7865 42.0406C38.3591 42.0406 37.9868 41.4615 38.1798 41.0892C38.2626 40.9375 39.6828 39.7517 41.3374 38.4418C42.9782 37.1457 44.55 35.891 44.812 35.6842L45.2946 35.2843H44.4535H43.6124L41.7648 36.7459Z" fill="#0533FA"/>
</svg>
